<?xml version="1.0" standalone="no"?>
<!DOCTYPE svg PUBLIC "-//W3C//DTD SVG 20010904//EN"
 "http://www.w3.org/TR/2001/REC-SVG-20010904/DTD/svg10.dtd">
<svg version="1.0" xmlns="http://www.w3.org/2000/svg"
 width="200.000000pt" height="200.000000pt" viewBox="0 0 200.000000 200.000000"
 preserveAspectRatio="xMidYMid meet">

<g transform="translate(0.000000,200.000000) scale(0.100000,-0.100000)"
fill="#000000" stroke="none">
<path d="M715 1365 c-14 -13 -25 -35 -25 -48 0 -29 36 -64 70 -69 20 -2 24 -8
22 -28 -2 -14 -4 -64 -4 -112 -1 -86 -1 -88 -24 -82 -40 10 -79 -47 -56 -82 4
-6 17 -16 30 -23 32 -17 72 9 72 45 0 14 4 23 9 20 5 -4 7 3 4 14 -7 27 14 50
46 50 15 0 32 5 39 12 9 9 21 9 51 0 32 -10 41 -18 46 -42 13 -59 78 -78 120
-35 30 30 31 54 4 89 -24 30 -58 34 -98 10 -24 -14 -30 -15 -64 0 -20 8 -37
21 -37 29 0 18 -32 47 -53 47 -17 0 -47 47 -47 74 0 26 53 78 105 102 90 42
196 28 266 -35 31 -29 41 -46 49 -88 5 -28 18 -66 30 -85 26 -43 25 -60 -5
-88 -20 -18 -25 -33 -25 -70 0 -25 -5 -51 -12 -58 -8 -8 -8 -12 -1 -12 15 0
23 24 23 69 0 28 7 44 30 66 36 35 37 40 5 107 -13 29 -27 70 -30 90 -12 79
-112 148 -215 148 -69 0 -112 -14 -165 -52 l-40 -29 -6 31 c-13 60 -72 78
-114 35z m90 -26 c13 -20 -5 -59 -30 -65 -33 -8 -55 11 -55 48 0 45 61 57 85
17z m13 -202 c-5 -11 -8 -30 -5 -43 2 -13 -2 -29 -8 -34 -25 -21 -31 95 -8
134 11 18 32 -38 21 -57z m70 -28 c4 -30 -22 -46 -44 -28 -17 14 -18 31 -2 47
19 19 43 9 46 -19z m203 -39 c28 -16 26 -68 -3 -79 -25 -9 -49 -4 -60 13 -14
20 -8 55 10 65 22 13 29 13 53 1z m-316 -100 c0 -20 -5 -25 -25 -25 -20 0 -26
6 -28 28 -3 26 -1 28 25 25 22 -2 28 -8 28 -28z"/>
<path d="M840 945 c13 -14 26 -25 28 -25 3 0 -5 11 -18 25 -13 14 -26 25 -28
25 -3 0 5 -11 18 -25z"/>
<path d="M1178 893 c6 -2 18 -2 25 0 6 3 1 5 -13 5 -14 0 -19 -2 -12 -5z"/>
<path d="M663 743 c9 -2 23 -2 30 0 6 3 -1 5 -18 5 -16 0 -22 -2 -12 -5z"/>
<path d="M770 746 c0 -2 15 -6 34 -8 19 -2 32 0 30 4 -5 8 -64 12 -64 4z"/>
<path d="M953 743 c9 -2 23 -2 30 0 6 3 -1 5 -18 5 -16 0 -22 -2 -12 -5z"/>
<path d="M1043 710 c0 -25 2 -35 4 -22 2 12 2 32 0 45 -2 12 -4 2 -4 -23z"/>
<path d="M1070 746 c0 -2 13 -6 29 -8 17 -2 28 -1 25 4 -5 8 -54 12 -54 4z"/>
<path d="M1180 746 c0 -2 15 -6 34 -8 19 -2 32 0 30 4 -5 8 -64 12 -64 4z"/>
<path d="M1313 743 c9 -2 23 -2 30 0 6 3 -1 5 -18 5 -16 0 -22 -2 -12 -5z"/>
<path d="M1003 705 c0 -22 2 -30 4 -17 2 12 2 30 0 40 -3 9 -5 -1 -4 -23z"/>
<path d="M1162 710 c0 -19 2 -27 5 -17 2 9 2 25 0 35 -3 9 -5 1 -5 -18z"/>
<path d="M1282 705 c0 -16 2 -22 5 -12 2 9 2 23 0 30 -3 6 -5 -1 -5 -18z"/>
<path d="M721 704 c0 -11 3 -14 6 -6 3 7 2 16 -1 19 -3 4 -6 -2 -5 -13z"/>
<path d="M753 695 c-3 -9 -3 -19 1 -22 3 -4 6 1 6 10 0 10 11 17 33 20 l32 4
-33 1 c-21 1 -35 -3 -39 -13z"/>
<path d="M836 702 c-2 -4 -1 -14 5 -22 7 -12 9 -10 9 8 0 23 -5 28 -14 14z"/>
<path d="M926 702 c-2 -4 11 -6 30 -4 19 2 34 6 34 8 0 8 -59 4 -64 -4z"/>
<path d="M668 663 c7 -3 16 -2 19 1 4 3 -2 6 -13 5 -11 0 -14 -3 -6 -6z"/>
<path d="M783 663 c9 -2 23 -2 30 0 6 3 -1 5 -18 5 -16 0 -22 -2 -12 -5z"/>
<path d="M948 663 c6 -2 18 -2 25 0 6 3 1 5 -13 5 -14 0 -19 -2 -12 -5z"/>
<path d="M1198 663 c6 -2 18 -2 25 0 6 3 1 5 -13 5 -14 0 -19 -2 -12 -5z"/>
<path d="M1318 663 c6 -2 18 -2 25 0 6 3 1 5 -13 5 -14 0 -19 -2 -12 -5z"/>
</g>
</svg>
